<svg version="1.1" id="Layer_1" xmlns="http://www.w3.org/2000/svg" xmlns:xlink="http://www.w3.org/1999/xlink" x="0px" y="0px"
	 width="100%" height="100%" viewBox="0 0 600 300" enable-background="new 0 0 600 300" xml:space="preserve">

	<defs>
	<style type="text/css"><![CDATA[
		.wave1{
			fill:white;
			-webkit-animation: movewaves 5s infinite;
			-webkit-transition-timing-function: linear;
			-webkit-transform-origin: center center;
			-webkit-transform:rotateX(0deg);			
		}
		
		@-webkit-keyframes movewaves{
			0%{
				-webkit-transform:rotateX(0deg) ;		
			}
			50%{
				-webkit-transform:rotateX(180deg);
			}
			100%{
				-webkit-transform:rotateX(0deg);
			}	
		}
		.wave2 {
			fill:white;
			-webkit-animation: movewaves 5s infinite;
			-webkit-transition-timing-function: linear;
			-webkit-transform-origin: center center;
			-webkit-transform:rotateX(0deg)
			}
					
		@-webkit-keyframes movewaves{
			0%{
				-webkit-transform:rotateX(0deg);		
			}
			
			50%{
				-webkit-transform:rotateX(180deg) ;
			}
			
			100%{
				-webkit-transform:rotateX(0deg);
			}	
		}
		.wave3 {
			fill:white;
			-webkit-animation: movewaves 5s infinite;
			-webkit-transition-timing-function: linear;
			-webkit-transform-origin: center center;
			-webkit-transform:rotateX(0deg)
		}

		@-webkit-keyframes movewaves{
			0%{
				-webkit-transform:rotateX(0deg);		
			}
			
			50%{
				-webkit-transform:rotateX(180deg);
			}
			100%{
				-webkit-transform:rotateX(0deg);
			}	
		}
		
		.wave4 {
			fill:white;
			-webkit-animation: movewaves 5s infinite;
			-webkit-transition-timing-function: linear;
			-webkit-transform-origin: center center;
			-webkit-transform:rotateX(0deg)
		}

		@-webkit-keyframes movewaves{
			0%{
				-webkit-transform:rotateX(0deg);		
			}
			
			50%{
				-webkit-transform:rotateX(180deg);
			}
			100%{
				-webkit-transform:rotateX(0deg);
			}	
		}

		.wave5 {
			fill:white;
			-webkit-animation: movewaves 5s infinite;
			-webkit-transition-timing-function: linear;
			-webkit-transform-origin: center center;
			-webkit-transform:rotateX(0deg)
		}

		@-webkit-keyframes movewaves{
			0%{
				-webkit-transform:rotateX(0deg);		
			}
			
			50%{
				-webkit-transform:rotateX(180deg);
			}
			100%{
				-webkit-transform:rotateX(0deg);
			}	
		}		
		
		
	]]></style>
	</defs>
<path fill="#7FCDEE" stroke="#29ABE2" stroke-miterlimit="10" d="M-17.5,164.687c0,0,209.627,47.381,436.5,0
	c0,0,266.841-50.936,409-9.187c238.584,70.067,333.75,25,333.75,25c95.324-43.429,163.75-43.007,305-17.5s150,32.298,247.5,13.75
	s155-54.574,157.5-40c2.5,14.573-1.254,194.87-1.254,194.87s131.789-105.638,1.037-56.582
	c-29.099,10.917-200.479,70.523-368.372,29.457c-40.686-9.951-223.911-36.47-320.161,20.5s-338.405-37.931-429.928-37.114
	c0,0-252.885-22.713-365.322,42.414c-97.22,56.312-503.25,5.3-405.25-46.371V164.687z"/>
<g>
	<g>
		<path class="wave1" fill="#FFFFFF" d="M255.27,246.313c-12.319,0-19.409-7.229-25.66-13.608c-4.858-4.953-9.062-9.234-14.893-9.234
			c-5.747,0-9.908,4.252-14.728,9.167c-6.278,6.407-13.388,13.675-25.828,13.675c-12.318,0-19.406-7.229-25.663-13.608
			c-4.858-4.953-9.06-9.234-14.888-9.234v-7.63c9.03,0,14.775,5.857,20.336,11.523c5.709,5.817,11.104,11.319,20.214,11.319
			c9.232,0,14.646-5.529,20.376-11.381c5.519-5.637,11.225-11.465,20.183-11.465c9.036,0,14.78,5.857,20.336,11.525
			c5.709,5.816,11.106,11.318,20.216,11.318c9.232,0,14.651-5.528,20.379-11.38c5.513-5.637,11.222-11.465,20.183-11.465v7.629
			c-5.755,0-9.914,4.253-14.734,9.168C274.824,239.047,267.717,246.313,255.27,246.313z"/>
	</g>
	<g>
		<path class="wave1" fill="#FFFFFF" d="M255.27,284.43c-12.319,0-19.409-7.225-25.66-13.606c-4.858-4.959-9.062-9.238-14.893-9.238
			c-5.747,0-9.908,4.254-14.728,9.171c-6.278,6.411-13.388,13.674-25.828,13.674c-12.318,0-19.406-7.225-25.663-13.606
			c-4.858-4.959-9.06-9.238-14.888-9.238v-7.628c9.03,0,14.775,5.854,20.336,11.524c5.709,5.819,11.104,11.319,20.214,11.319
			c9.232,0,14.646-5.527,20.376-11.379c5.519-5.639,11.225-11.465,20.183-11.465c9.036,0,14.78,5.854,20.336,11.524
			c5.709,5.819,11.106,11.319,20.216,11.319c9.232,0,14.651-5.527,20.379-11.379c5.513-5.639,11.222-11.465,20.183-11.465v7.628
			c-5.755,0-9.914,4.254-14.734,9.171C274.824,277.167,267.717,284.43,255.27,284.43z"/>
	</g>
	<g>
		<path class="wave1" fill="#FFFFFF" d="M255.27,322.546c-12.319,0-19.409-7.225-25.66-13.606c-4.858-4.955-9.062-9.232-14.893-9.232
			c-5.747,0-9.908,4.25-14.728,9.165c-6.278,6.409-13.388,13.674-25.828,13.674c-12.318,0-19.406-7.228-25.663-13.608
			c-4.858-4.957-9.06-9.232-14.888-9.232v-7.636c9.03,0,14.775,5.859,20.336,11.528c5.709,5.813,11.104,11.315,20.214,11.315
			c9.232,0,14.646-5.534,20.376-11.383c5.519-5.633,11.225-11.463,20.183-11.463c9.036,0,14.78,5.859,20.336,11.525
			c5.709,5.815,11.106,11.315,20.216,11.315c9.232,0,14.651-5.529,20.379-11.378c5.513-5.635,11.222-11.467,20.183-11.467v7.635
			c-5.755,0-9.914,4.25-14.734,9.165C274.824,315.283,267.717,322.546,255.27,322.546z"/>
	</g>
</g>
<g>
	<g>
		<path fclass="wave2" ill="#FFFFFF" d="M651.476,195.357c-10.646,0-16.775-6.246-22.178-11.761c-4.198-4.282-7.831-7.979-12.87-7.979
			c-4.968,0-8.564,3.673-12.733,7.923c-5.424,5.539-11.569,11.819-22.323,11.819c-10.645,0-16.772-6.245-22.18-11.76
			c-4.199-4.283-7.831-7.979-12.867-7.979v-6.596c7.804,0,12.77,5.063,17.575,9.959c4.934,5.029,9.593,9.784,17.471,9.784
			c7.979,0,12.657-4.777,17.612-9.835c4.77-4.872,9.704-9.908,17.443-9.908c7.808,0,12.773,5.063,17.576,9.959
			c4.934,5.029,9.598,9.784,17.473,9.784c7.98,0,12.663-4.777,17.614-9.835c4.767-4.872,9.7-9.908,17.443-9.908v6.596
			c-4.974,0-8.567,3.673-12.735,7.923C668.375,189.077,662.231,195.357,651.476,195.357z"/>
	</g>
	<g>
		<path class="wave2" fill="#FFFFFF" d="M651.476,228.302c-10.646,0-16.775-6.245-22.178-11.758c-4.198-4.285-7.831-7.982-12.87-7.982
			c-4.968,0-8.564,3.673-12.733,7.926c-5.424,5.538-11.569,11.818-22.323,11.818c-10.645,0-16.772-6.246-22.18-11.758
			c-4.199-4.285-7.831-7.983-12.867-7.983v-6.593c7.804,0,12.77,5.06,17.575,9.959c4.934,5.03,9.593,9.781,17.471,9.781
			c7.979,0,12.657-4.775,17.612-9.833c4.77-4.872,9.704-9.908,17.443-9.908c7.808,0,12.773,5.06,17.576,9.959
			c4.934,5.03,9.598,9.781,17.473,9.781c7.98,0,12.663-4.775,17.614-9.833c4.767-4.872,9.7-9.908,17.443-9.908v6.593
			c-4.974,0-8.567,3.674-12.735,7.926C668.375,222.021,662.231,228.302,651.476,228.302z"/>
	</g>
	<g>
		<path class="wave2" fill="#FFFFFF" d="M651.476,261.247c-10.646,0-16.775-6.247-22.178-11.761c-4.198-4.282-7.831-7.98-12.87-7.98
			c-4.968,0-8.564,3.673-12.733,7.924c-5.424,5.539-11.569,11.817-22.323,11.817c-10.645,0-16.772-6.247-22.18-11.761
			c-4.199-4.282-7.831-7.98-12.867-7.98v-6.598c7.804,0,12.77,5.065,17.575,9.961c4.934,5.031,9.593,9.786,17.471,9.786
			c7.979,0,12.657-4.78,17.612-9.836c4.77-4.872,9.704-9.911,17.443-9.911c7.808,0,12.773,5.065,17.576,9.961
			c4.934,5.031,9.598,9.786,17.473,9.786c7.98,0,12.663-4.778,17.614-9.836c4.767-4.872,9.7-9.911,17.443-9.911v6.598
			c-4.974,0-8.567,3.673-12.735,7.924C668.375,254.969,662.231,261.247,651.476,261.247z"/>
	</g>
</g>
<g>
	<g>
		<path class="wave3" fill="#FFFFFF" d="M1022.602,242.33c-10.617,0-16.731-6.229-22.117-11.731c-4.189-4.269-7.812-7.956-12.84-7.956
			c-4.95,0-8.54,3.664-12.691,7.901c-5.413,5.522-11.537,11.786-22.264,11.786c-10.618,0-16.73-6.229-22.118-11.731
			c-4.188-4.269-7.81-7.956-12.835-7.956v-6.577c7.782,0,12.734,5.05,17.529,9.932c4.919,5.014,9.568,9.753,17.424,9.753
			c7.958,0,12.623-4.765,17.562-9.809c4.754-4.856,9.675-9.88,17.392-9.88c7.786,0,12.739,5.049,17.528,9.932
			c4.919,5.015,9.572,9.755,17.424,9.755c7.957,0,12.626-4.767,17.561-9.811c4.755-4.856,9.673-9.88,17.393-9.88v6.578
			c-4.96,0-8.544,3.664-12.699,7.9C1039.452,236.065,1033.329,242.33,1022.602,242.33z"/>
	</g>
	<g>
		<path class="wave3" fill="#FFFFFF" d="M1022.602,275.179c-10.617,0-16.731-6.228-22.117-11.725c-4.189-4.273-7.812-7.962-12.84-7.962
			c-4.95,0-8.54,3.666-12.691,7.906c-5.413,5.52-11.537,11.78-22.264,11.78c-10.618,0-16.73-6.228-22.118-11.725
			c-4.188-4.273-7.81-7.962-12.835-7.962v-6.577c7.782,0,12.734,5.049,17.529,9.932c4.919,5.015,9.568,9.756,17.424,9.756
			c7.958,0,12.623-4.764,17.562-9.806c4.754-4.862,9.675-9.882,17.392-9.882c7.786,0,12.739,5.049,17.528,9.932
			c4.919,5.015,9.572,9.756,17.424,9.756c7.957,0,12.626-4.764,17.561-9.806c4.755-4.862,9.673-9.882,17.393-9.882v6.577
			c-4.96,0-8.544,3.666-12.699,7.906C1039.452,268.915,1033.329,275.179,1022.602,275.179z"/>
	</g>
	<g>
		<path class="wave3" fill="#FFFFFF" d="M1022.602,308.03c-10.617,0-16.731-6.228-22.117-11.728c-4.189-4.269-7.812-7.957-12.84-7.957
			c-4.95,0-8.54,3.666-12.691,7.902c-5.413,5.524-11.537,11.782-22.264,11.782c-10.618,0-16.73-6.228-22.118-11.728
			c-4.188-4.269-7.81-7.957-12.835-7.957v-6.577c7.782,0,12.734,5.05,17.529,9.934c4.919,5.015,9.568,9.755,17.424,9.755
			c7.958,0,12.623-4.766,17.562-9.811c4.754-4.855,9.675-9.883,17.392-9.883c7.786,0,12.739,5.05,17.528,9.934
			c4.919,5.015,9.572,9.757,17.424,9.757c7.957,0,12.626-4.769,17.561-9.811c4.755-4.855,9.673-9.882,17.393-9.882v6.58
			c-4.96,0-8.544,3.662-12.699,7.9C1039.452,301.772,1033.329,308.03,1022.602,308.03z"/>
	</g>
</g>
<g>
	<g>
		<path class="wave4" fill="#FFFFFF" d="M1706.737,232.859c-9.771,0-15.395-5.729-20.355-10.794c-3.853-3.93-7.189-7.327-11.812-7.327
			c-4.559,0-7.863,3.375-11.687,7.273c-4.972,5.081-10.622,10.848-20.489,10.848c-9.774,0-15.395-5.729-20.354-10.794
			c-3.85-3.93-7.186-7.327-11.81-7.327v-6.053c7.163,0,11.729,4.648,16.135,9.143c4.527,4.617,8.806,8.979,16.037,8.979
			c7.328,0,11.614-4.389,16.168-9.024c4.371-4.468,8.906-9.097,16.004-9.097c7.167,0,11.725,4.648,16.134,9.143
			c4.523,4.617,8.81,8.979,16.038,8.979c7.323,0,11.621-4.389,16.168-9.024c4.374-4.468,8.902-9.097,16-9.097v6.053
			c-4.562,0-7.86,3.375-11.68,7.273C1722.25,227.093,1716.612,232.859,1706.737,232.859z"/>
	</g>
	<g>
		<path class="wave4" fill="#FFFFFF" d="M1706.737,263.091c-9.771,0-15.395-5.729-20.355-10.789c-3.853-3.93-7.189-7.325-11.812-7.325
			c-4.559,0-7.863,3.375-11.687,7.271c-4.972,5.083-10.622,10.843-20.489,10.843c-9.774,0-15.395-5.729-20.354-10.789
			c-3.85-3.93-7.186-7.325-11.81-7.325v-6.054c7.163,0,11.729,4.648,16.135,9.143c4.527,4.617,8.806,8.979,16.037,8.979
			c7.328,0,11.614-4.383,16.168-9.024c4.371-4.475,8.906-9.097,16.004-9.097c7.167,0,11.725,4.648,16.134,9.143
			c4.523,4.617,8.81,8.979,16.038,8.979c7.323,0,11.621-4.383,16.168-9.024c4.374-4.475,8.902-9.097,16-9.097v6.054
			c-4.562,0-7.86,3.375-11.68,7.271C1722.25,257.331,1716.612,263.091,1706.737,263.091z"/>
	</g>
	<g>
		<path class="wave4" fill="#FFFFFF" d="M1706.737,293.335c-9.771,0-15.395-5.729-20.355-10.791c-3.853-3.928-7.189-7.326-11.812-7.326
			c-4.559,0-7.863,3.375-11.687,7.275c-4.972,5.078-10.622,10.842-20.489,10.842c-9.774,0-15.395-5.729-20.354-10.791
			c-3.85-3.928-7.186-7.326-11.81-7.326v-6.051c7.163,0,11.729,4.646,16.135,9.143c4.527,4.613,8.806,8.979,16.037,8.979
			c7.328,0,11.614-4.389,16.168-9.027c4.371-4.473,8.906-9.094,16.004-9.094c7.167,0,11.725,4.646,16.134,9.143
			c4.523,4.613,8.81,8.979,16.038,8.979c7.323,0,11.621-4.389,16.168-9.027c4.374-4.473,8.902-9.094,16-9.094v6.051
			c-4.562,0-7.86,3.375-11.68,7.275C1722.25,287.571,1716.612,293.335,1706.737,293.335z"/>
	</g>
</g>
<g>
	<g>
		<path class="wave5" fill="#FFFFFF" d="M1370.515,196.473c-10.557,0-16.636-6.193-21.991-11.664c-4.166-4.245-7.768-7.911-12.767-7.911
			c-4.922,0-8.492,3.643-12.62,7.856c-5.382,5.491-11.472,11.719-22.137,11.719c-10.559,0-16.636-6.193-21.993-11.664
			c-4.163-4.245-7.765-7.911-12.762-7.911v-6.54c7.738,0,12.662,5.021,17.431,9.876c4.891,4.985,9.514,9.698,17.324,9.698
			c7.913,0,12.551-4.738,17.462-9.753c4.727-4.829,9.619-9.824,17.293-9.824c7.741,0,12.666,5.021,17.429,9.875
			c4.891,4.986,9.518,9.699,17.324,9.699c7.912,0,12.555-4.739,17.461-9.755c4.728-4.828,9.618-9.823,17.294-9.823v6.541
			c-4.932,0-8.495,3.643-12.627,7.855C1387.271,190.244,1381.182,196.473,1370.515,196.473z"/>
	</g>
	<g>
		<path class="wave5" fill="#FFFFFF" d="M1370.515,229.135c-10.557,0-16.636-6.192-21.991-11.658c-4.166-4.25-7.768-7.917-12.767-7.917
			c-4.922,0-8.492,3.645-12.62,7.862c-5.382,5.488-11.472,11.713-22.137,11.713c-10.559,0-16.636-6.192-21.993-11.658
			c-4.163-4.25-7.765-7.917-12.762-7.917v-6.539c7.738,0,12.662,5.02,17.431,9.875c4.891,4.986,9.514,9.7,17.324,9.7
			c7.913,0,12.551-4.736,17.462-9.75c4.727-4.834,9.619-9.826,17.293-9.826c7.741,0,12.666,5.02,17.429,9.875
			c4.891,4.986,9.518,9.7,17.324,9.7c7.912,0,12.555-4.736,17.461-9.75c4.728-4.834,9.618-9.826,17.294-9.826v6.539
			c-4.932,0-8.495,3.645-12.627,7.862C1387.271,222.907,1381.182,229.135,1370.515,229.135z"/>
	</g>
	<g>
		<path class="wave5" fill="#FFFFFF" d="M1370.515,261.801c-10.557,0-16.636-6.193-21.991-11.661c-4.166-4.245-7.768-7.912-12.767-7.912
			c-4.922,0-8.492,3.645-12.62,7.857c-5.382,5.493-11.472,11.716-22.137,11.716c-10.559,0-16.636-6.193-21.993-11.661
			c-4.163-4.245-7.765-7.912-12.762-7.912v-6.541c7.738,0,12.662,5.021,17.431,9.877c4.891,4.986,9.514,9.7,17.324,9.7
			c7.913,0,12.551-4.738,17.462-9.755c4.727-4.828,9.619-9.827,17.293-9.827c7.741,0,12.666,5.021,17.429,9.877
			c4.891,4.986,9.518,9.702,17.324,9.702c7.912,0,12.555-4.741,17.461-9.755c4.728-4.828,9.618-9.826,17.294-9.826v6.543
			c-4.932,0-8.495,3.642-12.627,7.856C1387.271,255.578,1381.182,261.801,1370.515,261.801z"/>
	</g>
</g>
</svg>
