<?xml version="1.0" encoding="utf-8"?>
<!DOCTYPE svg PUBLIC "-//W3C//DTD SVG 1.1//EN" "http://www.w3.org/Graphics/SVG/1.1/DTD/svg11.dtd">
<svg version="1.1" xmlns="http://www.w3.org/2000/svg" xmlns:xlink="http://www.w3.org/1999/xlink" x="0px" y="0px" width="100%" height="100%" viewBox="0 0 600 400" enable-background="new 0 0 600 400" xml:space="preserve">
	
	<defs>
	<style type="text/css"><![CDATA[
		.wave1{
			fill:white;
			-webkit-animation: movewaves 5s infinite;
			-webkit-transition-timing-function: linear;
			-webkit-transform-origin: center center;
			-webkit-transform:rotateX(0deg);			
		}
		
		@-webkit-keyframes movewaves{
			0%{
				-webkit-transform:rotateX(0deg) ;		
			}
			50%{
				-webkit-transform:rotateX(180deg);
			}
			100%{
				-webkit-transform:rotateX(0deg);
			}	
		}
		.wave2 {
			fill:white;
			-webkit-animation: movewaves 5s infinite;
			-webkit-transition-timing-function: linear;
			-webkit-transform-origin: center center;
			-webkit-transform:rotateX(0deg)
			}
					
		@-webkit-keyframes movewaves{
			0%{
				-webkit-transform:rotateX(0deg);		
			}
			
			50%{
				-webkit-transform:rotateX(180deg) ;
			}
			
			100%{
				-webkit-transform:rotateX(0deg);
			}	
		}
		.wave3 {
			fill:white;
			-webkit-animation: movewaves 5s infinite;
			-webkit-transition-timing-function: linear;
			-webkit-transform-origin: center center;
			-webkit-transform:rotateX(0deg)
		}

		@-webkit-keyframes movewaves{
			0%{
				-webkit-transform:rotateX(0deg);		
			}
			
			50%{
				-webkit-transform:rotateX(180deg);
			}
			100%{
				-webkit-transform:rotateX(0deg);
			}	
		}
		
		.wave4 {
			fill:white;
			-webkit-animation: movewaves 5s infinite;
			-webkit-transition-timing-function: linear;
			-webkit-transform-origin: center center;
			-webkit-transform:rotateX(0deg)
		}

		@-webkit-keyframes movewaves{
			0%{
				-webkit-transform:rotateX(0deg);		
			}
			
			50%{
				-webkit-transform:rotateX(180deg);
			}
			100%{
				-webkit-transform:rotateX(0deg);
			}	
		}
		
		
		
	]]></style>
	</defs>

	<path fill="#7FCDEE" stroke="#29ABE2" stroke-miterlimit="10" d="M-13.5,157.321c0,0,61.737,16.576,148.441,0
		c0,0,42.981-9.634,137.761,3.683c94.78,13.317,85.032,13.317,114.358,8.217s54.841-14.24,102.868-6.058s51.859,12.008,85.012,6.058
		c33.151-5.95,52.706-3.4,53.556,1.275c0.85,4.675,2.382,34.597,3.232,15.896c0.853-18.701-33.707-8.319-45.391-5.525
		c-19.551,4.675-47.181,6.375-60.356,1.275c-13.176-5.101-99.027-2.976-131.754,15.301c-32.727,18.275-127.421,5.78-128.697,4.08
		c-1.275-1.7-111.039-13.176-141.215,8.925C94.139,232.55-46.5,212.148-13.5,195.573V157.321z"/>
	<g>
		
		<g>
			<path class="wave1" fill="#FFFFFF" d="M75.973,182.656c-4.574,0-7.207-2.684-9.528-5.053c-1.804-1.839-3.365-3.429-5.53-3.429
				c-2.134,0-3.679,1.579-5.469,3.404c-2.331,2.379-4.971,5.078-9.59,5.078c-4.574,0-7.206-2.684-9.529-5.053
				c-1.804-1.839-3.364-3.429-5.528-3.429v-2.833c3.353,0,5.486,2.175,7.551,4.279c2.12,2.16,4.123,4.203,7.506,4.203
				c3.428,0,5.438-2.053,7.566-4.226c2.049-2.093,4.168-4.257,7.494-4.257c3.355,0,5.488,2.175,7.551,4.279
				c2.12,2.16,4.124,4.203,7.507,4.203c3.428,0,5.44-2.053,7.567-4.226c2.047-2.093,4.167-4.257,7.494-4.257v2.833
				c-2.137,0-3.681,1.579-5.471,3.404C83.234,179.958,80.595,182.656,75.973,182.656z"/>
		</g>
		<g>
			<path class="wave1" fill="#FFFFFF" d="M75.973,196.809c-4.574,0-7.207-2.683-9.528-5.052c-1.804-1.841-3.365-3.43-5.53-3.43
				c-2.134,0-3.679,1.579-5.469,3.405c-2.331,2.38-4.971,5.077-9.59,5.077c-4.574,0-7.206-2.683-9.529-5.052
				c-1.804-1.841-3.364-3.43-5.528-3.43v-2.833c3.353,0,5.486,2.174,7.551,4.279c2.12,2.161,4.123,4.203,7.506,4.203
				c3.428,0,5.438-2.052,7.566-4.225c2.049-2.093,4.168-4.257,7.494-4.257c3.355,0,5.488,2.174,7.551,4.279
				c2.12,2.161,4.124,4.203,7.507,4.203c3.428,0,5.44-2.052,7.567-4.225c2.047-2.093,4.167-4.257,7.494-4.257v2.833
				c-2.137,0-3.681,1.579-5.471,3.405C83.234,194.112,80.595,196.809,75.973,196.809z"/>
		</g>
		<g>
			<path class="wave1" fill="#FFFFFF" d="M75.973,210.963c-4.574,0-7.207-2.683-9.528-5.053c-1.804-1.84-3.365-3.428-5.53-3.428
				c-2.134,0-3.679,1.578-5.469,3.403c-2.331,2.38-4.971,5.077-9.59,5.077c-4.574,0-7.206-2.683-9.529-5.053
				c-1.804-1.84-3.364-3.428-5.528-3.428v-2.835c3.353,0,5.486,2.176,7.551,4.28c2.12,2.159,4.123,4.202,7.506,4.202
				c3.428,0,5.438-2.054,7.566-4.226c2.049-2.092,4.168-4.257,7.494-4.257c3.355,0,5.488,2.176,7.551,4.28
				c2.12,2.159,4.124,4.202,7.507,4.202c3.428,0,5.44-2.054,7.567-4.226c2.047-2.092,4.167-4.257,7.494-4.257v2.835
				c-2.137,0-3.681,1.578-5.471,3.403C83.234,208.266,80.595,210.963,75.973,210.963z"/>
		</g>
	</g>
	<g>
		<g>
			<path class="wave2" fill="#FFFFFF" d="M204.13,167.655c-3.953,0-6.229-2.319-8.235-4.367c-1.559-1.59-2.908-2.963-4.779-2.963
				c-1.845,0-3.18,1.364-4.728,2.942c-2.014,2.057-4.296,4.389-8.289,4.389c-3.953,0-6.228-2.319-8.236-4.367
				c-1.559-1.59-2.908-2.963-4.778-2.963v-2.449c2.898,0,4.742,1.88,6.526,3.698c1.832,1.867,3.562,3.633,6.487,3.633
				c2.963,0,4.7-1.774,6.54-3.652c1.771-1.809,3.603-3.679,6.477-3.679c2.899,0,4.743,1.88,6.526,3.698
				c1.832,1.867,3.564,3.633,6.488,3.633c2.963,0,4.702-1.774,6.54-3.652c1.77-1.809,3.602-3.679,6.477-3.679v2.449
				c-1.847,0-3.181,1.364-4.729,2.942C210.405,165.323,208.124,167.655,204.13,167.655z"/>
		</g>
		<g>
			<path class="wave2" fill="#FFFFFF" d="M204.13,179.888c-3.953,0-6.229-2.319-8.235-4.366c-1.559-1.591-2.908-2.964-4.779-2.964
				c-1.845,0-3.18,1.364-4.728,2.943c-2.014,2.056-4.296,4.388-8.289,4.388c-3.953,0-6.228-2.319-8.236-4.366
				c-1.559-1.591-2.908-2.964-4.778-2.964v-2.448c2.898,0,4.742,1.879,6.526,3.698c1.832,1.868,3.562,3.632,6.487,3.632
				c2.963,0,4.7-1.773,6.54-3.651c1.771-1.809,3.603-3.679,6.477-3.679c2.899,0,4.743,1.879,6.526,3.698
				c1.832,1.868,3.564,3.632,6.488,3.632c2.963,0,4.702-1.773,6.54-3.651c1.77-1.809,3.602-3.679,6.477-3.679v2.448
				c-1.847,0-3.181,1.364-4.729,2.943C210.405,177.556,208.124,179.888,204.13,179.888z"/>
		</g>
		<g>
			<path class="wave2" fill="#FFFFFF" d="M204.13,192.121c-3.953,0-6.229-2.319-8.235-4.367c-1.559-1.59-2.908-2.963-4.779-2.963
				c-1.845,0-3.18,1.364-4.728,2.942c-2.014,2.057-4.296,4.388-8.289,4.388c-3.953,0-6.228-2.319-8.236-4.367
				c-1.559-1.59-2.908-2.963-4.778-2.963v-2.45c2.898,0,4.742,1.881,6.526,3.699c1.832,1.868,3.562,3.633,6.487,3.633
				c2.963,0,4.7-1.774,6.54-3.652c1.771-1.809,3.603-3.68,6.477-3.68c2.899,0,4.743,1.881,6.526,3.699
				c1.832,1.868,3.564,3.633,6.488,3.633c2.963,0,4.702-1.774,6.54-3.652c1.77-1.809,3.602-3.68,6.477-3.68v2.45
				c-1.847,0-3.181,1.364-4.729,2.942C210.405,189.79,208.124,192.121,204.13,192.121z"/>
		</g>
	</g>
	<g>
		<g>
			<path class="wave3" fill="#FFFFFF" d="M349.063,182.934c-3.288,0-5.182-1.929-6.85-3.633c-1.297-1.322-2.419-2.464-3.976-2.464
				c-1.533,0-2.645,1.135-3.931,2.447c-1.676,1.71-3.573,3.65-6.895,3.65c-3.288,0-5.181-1.929-6.85-3.633
				c-1.297-1.322-2.419-2.464-3.975-2.464V174.8c2.41,0,3.944,1.564,5.429,3.076c1.523,1.553,2.963,3.021,5.396,3.021
				c2.465,0,3.909-1.476,5.439-3.038c1.472-1.504,2.996-3.06,5.386-3.06c2.412,0,3.945,1.564,5.429,3.076
				c1.523,1.553,2.964,3.021,5.396,3.021c2.464,0,3.91-1.476,5.438-3.038c1.473-1.504,2.996-3.06,5.387-3.06v2.037
				c-1.536,0-2.646,1.135-3.933,2.447C354.282,180.994,352.385,182.934,349.063,182.934z"/>
		</g>
		<g>
			<path class="wave3" fill="#FFFFFF" d="M349.063,193.108c-3.288,0-5.182-1.929-6.85-3.632c-1.297-1.323-2.419-2.465-3.976-2.465
				c-1.533,0-2.645,1.135-3.931,2.448c-1.676,1.71-3.573,3.649-6.895,3.649c-3.288,0-5.181-1.929-6.85-3.632
				c-1.297-1.323-2.419-2.465-3.975-2.465v-2.037c2.41,0,3.944,1.563,5.429,3.076c1.523,1.553,2.963,3.021,5.396,3.021
				c2.465,0,3.909-1.475,5.439-3.037c1.472-1.505,2.996-3.06,5.386-3.06c2.412,0,3.945,1.563,5.429,3.076
				c1.523,1.553,2.964,3.021,5.396,3.021c2.464,0,3.91-1.475,5.438-3.037c1.473-1.505,2.996-3.06,5.387-3.06v2.037
				c-1.536,0-2.646,1.135-3.933,2.448C354.282,191.168,352.385,193.108,349.063,193.108z"/>
		</g>
		<g>
			<path class="wave3" fill="#FFFFFF" d="M349.063,203.282c-3.288,0-5.182-1.929-6.85-3.632c-1.297-1.322-2.419-2.464-3.976-2.464
				c-1.533,0-2.645,1.135-3.931,2.447c-1.676,1.711-3.573,3.649-6.895,3.649c-3.288,0-5.181-1.929-6.85-3.632
				c-1.297-1.322-2.419-2.464-3.975-2.464v-2.038c2.41,0,3.944,1.564,5.429,3.077c1.523,1.553,2.963,3.021,5.396,3.021
				c2.465,0,3.909-1.476,5.439-3.038c1.472-1.504,2.996-3.061,5.386-3.061c2.412,0,3.945,1.564,5.429,3.077
				c1.523,1.553,2.964,3.021,5.396,3.021c2.464,0,3.91-1.476,5.438-3.038c1.473-1.504,2.996-3.061,5.387-3.061v2.038
				c-1.536,0-2.646,1.135-3.933,2.447C354.282,201.344,352.385,203.282,349.063,203.282z"/>
		</g>
	</g>
	<g>
		<g>
			<path class="wave4" fill="#FFFFFF" d="M454.333,167.904c-1.85,0-2.915-1.085-3.854-2.044c-0.73-0.744-1.361-1.387-2.237-1.387
				c-0.862,0-1.488,0.639-2.212,1.377c-0.942,0.962-2.011,2.054-3.879,2.054c-1.851,0-2.915-1.085-3.854-2.044
				c-0.729-0.744-1.361-1.387-2.236-1.387v-1.146c1.356,0,2.22,0.88,3.055,1.731c0.857,0.874,1.667,1.7,3.036,1.7
				c1.387,0,2.199-0.831,3.061-1.709c0.828-0.846,1.686-1.722,3.03-1.722c1.357,0,2.22,0.88,3.055,1.731
				c0.857,0.874,1.668,1.7,3.036,1.7c1.387,0,2.2-0.831,3.061-1.709c0.828-0.846,1.686-1.722,3.03-1.722v1.146
				c-0.864,0-1.488,0.639-2.212,1.377C457.27,166.812,456.202,167.904,454.333,167.904z"/>
		</g>
		<g>
			<path class="wave4" fill="#FFFFFF" d="M454.333,173.628c-1.85,0-2.915-1.085-3.854-2.043c-0.73-0.744-1.361-1.387-2.237-1.387
				c-0.862,0-1.488,0.639-2.212,1.377c-0.942,0.962-2.011,2.053-3.879,2.053c-1.851,0-2.915-1.085-3.854-2.043
				c-0.729-0.744-1.361-1.387-2.236-1.387v-1.146c1.356,0,2.22,0.88,3.055,1.731c0.857,0.874,1.667,1.7,3.036,1.7
				c1.387,0,2.199-0.83,3.061-1.709c0.828-0.847,1.686-1.722,3.03-1.722c1.357,0,2.22,0.88,3.055,1.731
				c0.857,0.874,1.668,1.7,3.036,1.7c1.387,0,2.2-0.83,3.061-1.709c0.828-0.847,1.686-1.722,3.03-1.722v1.146
				c-0.864,0-1.488,0.639-2.212,1.377C457.27,172.537,456.202,173.628,454.333,173.628z"/>
		</g>
		<g>
			<path class="wave4" fill="#FFFFFF" d="M454.333,179.354c-1.85,0-2.915-1.085-3.854-2.043c-0.73-0.744-1.361-1.387-2.237-1.387
				c-0.862,0-1.488,0.639-2.212,1.377c-0.942,0.962-2.011,2.053-3.879,2.053c-1.851,0-2.915-1.085-3.854-2.043
				c-0.729-0.744-1.361-1.387-2.236-1.387v-1.146c1.356,0,2.22,0.88,3.055,1.731c0.857,0.874,1.667,1.7,3.036,1.7
				c1.387,0,2.199-0.831,3.061-1.709c0.828-0.847,1.686-1.722,3.03-1.722c1.357,0,2.22,0.88,3.055,1.731
				c0.857,0.874,1.668,1.7,3.036,1.7c1.387,0,2.2-0.831,3.061-1.709c0.828-0.847,1.686-1.722,3.03-1.722v1.146
				c-0.864,0-1.488,0.639-2.212,1.377C457.27,178.263,456.202,179.354,454.333,179.354z"/>
		</g>
	</g>
	
</svg>